<svg width="40" height="40" viewBox="0 0 40 40" fill="none" xmlns="http://www.w3.org/2000/svg">
<circle cx="20" cy="20" r="20" fill="#262E38"/>
<path d="M20.889 13.6916L22.5472 17.0511C22.6409 17.2409 22.8219 17.3724 23.0314 17.4028L26.7387 17.9416C26.981 17.9768 27.1822 18.1465 27.2578 18.3793C27.3335 18.6122 27.2703 18.8677 27.0949 19.0385L24.4118 21.6535C24.2601 21.8014 24.1913 22.0142 24.2266 22.2225L24.86 25.9151C24.9013 26.1563 24.8021 26.4001 24.6041 26.5439C24.4061 26.6877 24.1436 26.7067 23.927 26.5928L20.6106 24.849C20.4232 24.7507 20.1994 24.7507 20.012 24.849L16.6955 26.5928C16.4789 26.7067 16.2164 26.6877 16.0184 26.5439C15.8204 26.4001 15.7213 26.1563 15.7626 25.9151L16.3959 22.2225C16.4317 22.0139 16.3624 21.8011 16.2107 21.6535L13.5276 19.0385C13.3523 18.8677 13.2891 18.6122 13.3647 18.3793C13.4403 18.1465 13.6416 17.9768 13.8838 17.9416L17.5912 17.4028C17.8006 17.3724 17.9817 17.2409 18.0754 17.0511L19.7336 13.6916C19.9715 13.2139 20.653 13.2139 20.889 13.6916Z" fill="#FC7614"/>
</svg>
